<?xml version="1.0" encoding="UTF-8"?>
<!DOCTYPE svg PUBLIC "-//W3C//DTD SVG 1.1//EN" "http://www.w3.org/Graphics/SVG/1.1/DTD/svg11.dtd">
<svg xmlns="http://www.w3.org/2000/svg" version="1.1" width="2000px" height="1999px" style="shape-rendering:geometricPrecision; text-rendering:geometricPrecision; image-rendering:optimizeQuality; fill-rule:evenodd; clip-rule:evenodd" xmlns:xlink="http://www.w3.org/1999/xlink">
<g><path style="opacity:0.999" fill="#000000" d="M 966.5,-0.5 C 988.5,-0.5 1010.5,-0.5 1032.5,-0.5C 1302.16,12.3714 1531.33,114.371 1720,305.5C 1899.65,496.924 1992.82,724.591 1999.5,988.5C 1999.5,995.5 1999.5,1002.5 1999.5,1009.5C 1994.28,1251.75 1914.11,1465.08 1759,1649.5C 1590.59,1842.15 1378.75,1955.99 1123.5,1991C 1093.09,1994.5 1062.76,1997 1032.5,1998.5C 1010.5,1998.5 988.5,1998.5 966.5,1998.5C 696.831,1985.63 467.664,1883.63 279,1692.5C 122.022,1526.49 30.6889,1329.16 5,1100.5C 2.19783,1070.4 0.364493,1040.4 -0.5,1010.5C -0.5,1002.83 -0.5,995.167 -0.5,987.5C 6.39244,724.505 99.2258,497.505 278,306.5C 466.798,114.718 696.298,12.385 966.5,-0.5 Z"/></g>
<g><path style="opacity:1" fill="#fca768" d="M 782.5,757.5 C 793.873,756.429 801.706,761.096 806,771.5C 806.333,836.167 806.667,900.833 807,965.5C 842.282,910.946 892.115,889.113 956.5,900C 1005.73,912.885 1040.56,942.718 1061,989.5C 1075.71,1026.31 1079.71,1064.31 1073,1103.5C 1064.89,1150.21 1042.06,1187.71 1004.5,1216C 948.14,1250.52 893.14,1248.52 839.5,1210C 826.88,1199.72 816.046,1187.88 807,1174.5C 806.667,1190.17 806.333,1205.83 806,1221.5C 801.185,1232.9 792.685,1237.06 780.5,1234C 774.667,1232.17 770.833,1228.33 769,1222.5C 767.339,1072.54 767.006,922.543 768,772.5C 770.351,764.984 775.184,759.984 782.5,757.5 Z"/></g>
<g><path style="opacity:1" fill="#fda769" d="M 522.5,776.5 C 565.05,773.442 605.05,781.942 642.5,802C 657.667,811.833 670.167,824.333 680,839.5C 681.946,852.766 676.446,861.266 663.5,865C 658.632,866.186 654.298,865.186 650.5,862C 627.892,836.522 599.559,821.189 565.5,816C 531.449,810.674 499.449,816.341 469.5,833C 441.058,852.398 430.892,878.898 439,912.5C 442.67,925.344 449.504,936.177 459.5,945C 470.499,953.839 482.499,961.173 495.5,967C 527.521,980.452 560.188,992.118 593.5,1002C 619.405,1010.93 641.905,1025.1 661,1044.5C 684.525,1075.95 691.858,1110.95 683,1149.5C 674.108,1178.14 656.941,1200.3 631.5,1216C 601.695,1232.62 569.695,1240.78 535.5,1240.5C 492.417,1241.08 453.417,1228.92 418.5,1204C 405.448,1194.62 393.282,1184.12 382,1172.5C 375.302,1158.71 378.802,1148.21 392.5,1141C 398.557,1139.84 404.223,1140.84 409.5,1144C 461.163,1198.14 522.83,1214.14 594.5,1192C 635.293,1174.58 651.459,1144.08 643,1100.5C 638.501,1085.33 630.001,1072.83 617.5,1063C 605.603,1053.88 592.603,1046.55 578.5,1041C 547.984,1029.94 517.317,1019.27 486.5,1009C 461.5,999.969 439.667,986.135 421,967.5C 399.413,939.367 391.746,907.7 398,872.5C 403.985,845.012 418.152,822.846 440.5,806C 465.342,789.109 492.675,779.276 522.5,776.5 Z"/></g>
<g><path style="opacity:1" fill="#fea869" d="M 1189.5,783.5 C 1228.83,783.5 1268.17,783.5 1307.5,783.5C 1307.5,927.167 1307.5,1070.83 1307.5,1214.5C 1268.17,1214.5 1228.83,1214.5 1189.5,1214.5C 1189.5,1070.83 1189.5,927.167 1189.5,783.5 Z"/></g>
<g><path style="opacity:1" fill="#be7e4e" d="M 1333.5,783.5 C 1372.83,783.5 1412.17,783.5 1451.5,783.5C 1451.5,927.167 1451.5,1070.83 1451.5,1214.5C 1412.17,1214.5 1372.83,1214.5 1333.5,1214.5C 1333.5,1070.83 1333.5,927.167 1333.5,783.5 Z"/></g>
<g><path style="opacity:1" fill="#7f5434" d="M 1476.5,783.5 C 1515.83,783.5 1555.17,783.5 1594.5,783.5C 1594.5,927.167 1594.5,1070.83 1594.5,1214.5C 1555.17,1214.5 1515.83,1214.5 1476.5,1214.5C 1476.5,1070.83 1476.5,927.167 1476.5,783.5 Z"/></g>
<g><path style="opacity:1" fill="#000000" d="M 906.5,933.5 C 963.706,929.9 1003.87,954.234 1027,1006.5C 1042.79,1048.75 1042.12,1090.75 1025,1132.5C 997.512,1189.99 952.345,1212.49 889.5,1200C 848.122,1185.46 821.622,1156.96 810,1114.5C 800.726,1080.3 801.392,1046.3 812,1012.5C 828.624,968.018 860.124,941.685 906.5,933.5 Z"/></g>
</svg>
